/* XPM */
static char *result[] = {
/* columns rows colors chars-per-pixel */
"50 50 11 1 ",
"  c #240614",
". c #4A0019",
"X c #5C051D",
"o c #400720",
"O c #8B0015",
"+ c #BA0014",
"@ c #E50B31",
"# c #EF425C",
"$ c #FC766D",
"% c #CAA283",
"& c #CEB089",
/* pixels */
"&&&&&&&&&&&&&&&&&&&&&&&%%%%&&&&&&&&&&&&&&&&&&&&&&&",
"&&&&&&&&&&&&&&&&&&&&&&%%%%%%&&&&&&&&&&&&&&&&&&&&&&",
"&&&&&&&&&&&&&&&&&&&&&%%%%%%%%&&&&&&&&&&&&&&&&&&&&&",
"&&&&&&&&&&&&&&&&&&&&%%%%%%%%%%&&&&&&&&&&&&&&&&&&&&",
"&&&&&&&&&&&&&&&&&&&%%%%%%%%%%%%&&&&&&&&&&&&&&&&&&&",
"&&&&&&&&&&&&&&&&&&%%%%%%%%%%%%%%&&&&&&&&&&&&&&&&&&",
"&&&&&&&&&&&&&&&&&%%%%%%%%%%%%%%%%&&&&&&&&&&&&&&&&&",
"&&&&&&&&&&&&&&&&%%%%%%%%%%%%%%%%%%&&&&&&&&&&&&&&&&",
"&&&&&&&&&&&&&&&%%%%%%%%%%%%%%%%%%%%&&&&&&&&&&&&&&&",
"&&&&&&&&&&&&&&%%%%%%%%%%%%%%%%%%%%%%&&&&&&&&&&&&&&",
"&&&&&&&&&&&&&%%%%%%%%%%%%%%%%%%%%%%%%&&&&&&&&&&&&&",
"&&&&&&&&&&&&%%%%%%%%%%%%%%%%%%%%%%%%%%&&&&&&&&&&&&",
"&&&&&&&&&&&%%%%%%%%%%%%%%%%%%%%%%%%%%%%&&&&&&&&&&&",
"&&&&&&&&&&%%%%%%%%%%%%%%%%%%%%%%%%%%%%%%&&&&&&&&&&",
"&&&&&&&&&%%%%%%%%%%%%%%%%%%%%%%%%%%%%%%%%&&&&&&&&&",
"&&&&&&&&%%%%%%%%%%%%%%%%%%%%%%%%%%%%%%%%%%&&&&&&&&",
"&&&&&&&%%%%%%%%%%%%%%%%%%%%%%%%%%%%%%%%%%%%&&&&&&&",
"&&&&&&%%%%%%%%%%%%%%%%%%%%%%%%%%%%%%%%%%%%%%&&&&&&",
"&&&&&%%%%%%%%%%%%%%%% #..# %%%%%%%%%%%%%%%%%%&&&&&",
"&&&&%%%%%%%%%%%%%%%%%% #+ %%%%%%%%%%%%%%%%%%%%&&&&",
"&&&%%%%%%%%%%%%%%%%%  X@OX  %%%%%%%%%%%%%%%%%%%&&&",
"&&%%%%%%%%%%%%%%%%% ##+OO++O %%%%%%%%%%%%%%%%%%%&&",
"&%%%%%%%%%%%%%%%%%.O#$$##@@+O.%%%%%%%%%%%%%%%%%%%&",
"%%%%%%%%%%%%%%%%%%.@+@##+++O+.%%%%%%%%%%%%%%%%%%%%",
"%%%%%%%%%%%%%%%%%%.@+++++++O@.%%%%%%%%%%%%%%%%%%%%",
"%%%%%%%%%%%%%%%%%%.#OO++++XX@.%%%%%%%%%%%%%%%%%%%%",
"%%%%%%%%%%%%%%%%%%.#OXOOOooX#.%%%%%%%%%%%%%%%%%%%%",
"%%%%%%%%%%%%%%%%%% O#OXXXoo#O %%%%%%%%%%%%%%%%%%%%",
"%%%%%%%%%%%%%%%%%%% O@OXXX@O %%%%%%%%%%%%%%%%%%%%%",
"%%%%%%%%%%%%%%%%%%%%  @@@@  %%%%%%%%%%%%%%%%%%%%%%",
"%%%%%%%%%%%%%%%%%%%%%%    &&%%%%%%%%%%%%%%%%%%%%%%",
"%%%%%%%%%%%%%%%%%%%%%&&&&&&&&%%%%%%%%%%%%%%%%%%%%%",
"%%%%%%%%%%%%%%%%%%%%&&&&&&&&&&%%%%%%%%%%%%%%%%%%%%",
"%%%%%%%%%%%%%%%%%%%&&&&&&&&&&&&%%%%%%%%%%%%%%%%%%%",
"%%%%%%%%%%%%%%%%%%&&&&&&&&&&&&&&%%%%%%%%%%%%%%%%%%",
"%%%%%%%%%%%%%%%%%&&&&&&&&&&&&&&&&%%%%%%%%%%%%%%%%%",
"%%%%%%%%%%%%%%%%&&&&&&&&&&&&&&&&&&%%%%%%%%%%%%%%%%",
"%%%%%%%%%%%%%%%&&&&&&&&&&&&&&&&&&&&%%%%%%%%%%%%%%%",
"%%%%%%%%%%%%%%&&&&&&&&&&&&&&&&&&&&&&%%%%%%%%%%%%%%",
"%%%%%%%%%%%%%&&&&&&&&&&&&&&&&&&&&&&&&%%%%%%%%%%%%%",
"%%%%%%%%%%%%&&&&&&&&&&&&&&&&&&&&&&&&&&%%%%%%%%%%%%",
"%%%%%%%%%%%&&&&&&&&&&&&&&&&&&&&&&&&&&&&%%%%%%%%%%%",
"%%%%%%%%%%&&&&&&&&&&&&&&&&&&&&&&&&&&&&&&%%%%%%%%%%",
"%%%%%%%%%&&&&&&&&&&&&&&&&&&&&&&&&&&&&&&&&%%%%%%%%%",
"%%%%%%%%&&&&&&&&&&&&&&&&&&&&&&&&&&&&&&&&&&%%%%%%%%",
"%%%%%%%&&&&&&&&&&&&&&&&&&&&&&&&&&&&&&&&&&&&%%%%%%%",
"%%%%%%&&&&&&&&&&&&&&&&&&&&&&&&&&&&&&&&&&&&&&%%%%%%",
"%%%%%&&&&&&&&&&&&&&&&&&&&&&&&&&&&&&&&&&&&&&&&%%%%%",
"%%%%&&&&&&&&&&&&&&&&&&&&&&&&&&&&&&&&&&&&&&&&&&%%%%",
"%%%&&&&&&&&&&&&&&&&&&&&&&&&&&&&&&&&&&&&&&&&&&&&%%%"
};
