/* XPM */
static char *result[] = {
/* columns rows colors chars-per-pixel */
"50 50 12 1 ",
"  c #191724",
". c #383649",
"X c #4F5367",
"o c #AA430D",
"O c #C27913",
"+ c #D9C128",
"@ c #F5EA78",
"# c #A0ADB6",
"$ c #CAA283",
"% c #CEB089",
"& c #CFDADD",
"* c white",
/* pixels */
"%%%%%%%%%%%%%%%%%%%%%%%%$$$$%%%%%%%%%%%%%%%%%%%%%%",
"%%%%%%%%%%%%%%%%%%%%%%%$$$$$$%%%%%%%%%%%%%%%%%%%%%",
"%%%%%%%%%%%%%%%%%%%%%%$$$$$$$$%%%%%%%%%%%%%%%%%%%%",
"%%%%%%%%%%%%%%%%%%%%%$$$$$$$$$$%%%%%%%%%%%%%%%%%%%",
"%%%%%%%%%%%%%%%%%%%%$$$$$$$$$$$$%%%%%%%%%%%%%%%%%%",
"%%%%%%%%%%%%%%%%%%%$$$$$$$$$$$$$$%%%%%%%%%%%%%%%%%",
"%%%%%%%%%%                              %%%%%%%%%%",
"%%%%%%%%% O+@@@@@@@@@@@@@@@@@@@@*@**@*** %%%%%%%%%",
"%%%%      O+++++++++++++++++++++@+@@+@@@      %%%%",
"%%% *@@+O     oooooooooooooooooooooo     +@@** %%%",
"%% *@@++O  OO++++++++++++++++++++++++++  +++@@* %%",
"%% *@+    OO+++@@@@@@@@@@@@@@@@@@@@@@@++    +@* %%",
"%% @+ %%% OO++@@+@@@@@@@@@@@@@**@@**@@@+ %%% +@ %%",
"%% *+ %%% OO++@@@@@@@@@@@@@@@@**@****@@+ %%% +@ %%",
"%% @+ %%% OO++@+@@@@@@@@@@@@@@@@@****@@+ $%% +* %%",
"%% @+ %%% OO++@@@@@@@@@@@@@@@@@@@@**@@@+ $$% +* %%",
"%% @+ %%$ OO++@@@@@@@@@@@@@@@@@@@@@@@@@+ $$$ +@ %%",
"%% @+ %$$ OO++@@@@@@@@@@@@@@@@@@@@@@*@@+ $$$ +@ %%",
"%% @+ $$$ OO++@@@@@@@@@@@@@@@@@@@@@@@@@+ $$$ +@ %%",
"%% @+ $$$ OO++@@@@@@@@@@@@@@@@@@@@@@@@@+ $$$ +@ %%",
"%% @+ $$$ OO++@@+@@@@@@@@@@@@@@@@@@@@@@+ $$$ +@ %%",
"%% @@+    OO+++@@@++@@@@@@@@@@@@@@+@@@++    +@@ $%",
"%% +@@@+O OO++++@@++@@+@@@@@@@@@@@@@@+++ +@@@@+ $$",
"%$$ ++++OO OO+++++@@@@@@@@@@@@@@@@@++++ ++++++ $$$",
"$$$$       OOO++++++++++++++++++++++++O       $$$$",
"$$$$$$$$$$$ OOOO++++++++++++++++++++OO $$$$$$$$$$$",
"$$$$$$$$$$$$  OOOOOOOOOOOOOOOOOOOOOO  $$$$$$$$$$$$",
"$$$$$$$$$$$$$$          oo          $$$$$$$$$$$$$$",
"$$$$$$$$$$$$$$$$$$$$$  ++++  $$$$$$$$$$$$$$$$$$$$$",
"$$$$$$$$$$$$$$$$$$$$$ +@@@@@ $$$$$$$$$$$$$$$$$$$$$",
"$$$$$$$$$$$$$$$$$$$$   oooo   $$$$$$$$$$$$$$$$$$$$",
"$$$$$$$$$$$$$$$$$$$ O+@@@@@@** $$$$$$$$$$$$$$$$$$$",
"$$$$$$$$$$$$$$$$$$$ O+@@@@@@@@ $$$$$$$$$$$$$$$$$$$",
"$$$$$$$$$$$$$$$$$$$ O+++++++++ %$$$$$$$$$$$$$$$$$$",
"$$$$$$$$$$$$$$$$$$$%   oo+o   %%%$$$$$$$$$$$$$$$$$",
"$$$$$$$$$$$$$$$$$$%%% ++++++ %%%%%$$$$$$$$$$$$$$$$",
"$$$$$$$$$$$$$$$$$%%%% +@@@@@ %%%%%%$$$$$$$$$$$$$$$",
"$$$$$$$$$$$$$$$$%%%% ++@@@@@+ %%%%%%$$$$$$$$$$$$$$",
"$$$$$$$$$$$$$$      +++++@@+++      %$$$$$$$$$$$$$",
"$$$$$$$$$$$$$ ++@@@@@@@@@@@@@@@@*@** %$$$$$$$$$$$$",
"$$$$$$$$$$$$ O+++++++++++++++++++++++ %$$$$$$$$$$$",
"$$$$$$$$$$$$ OOOOOOOOOOOOOOOOOOOOOOOO %%$$$$$$$$$$",
"$$$$$$$$                                  $$$$$$$$",
"$$$$$$$$ .XXX****XXXX****XXXX****XXXX**** $$$$$$$$",
"$$$$$$$$  ...&&&&....&&&&....&&&&....&&&* %$$$$$$$",
"$$$$$$$$  ...&&&&....&&&&....&&&&....&&&* %%$$$$$$",
"$$$$$$$%  ...&&&&....&&&&....&&&&....&&&* %%%$$$$$",
"$$$$$$%% #&&&....&&&&....&&&&....&&&&...X %%%%$$$$",
"$$$$$%%% #&&&....&&&&....&&&&....&&&&...X %%%%%$$$",
"$$$$%%%% ####    ####    ####    ####   . %%%%%%$$"
};
