/* XPM */
static char *result[] = {
/* columns rows colors chars-per-pixel */
"50 50 16 1 ",
"  c #191724",
". c #702336",
"X c #8E3435",
"o c #DE7933",
"O c #A95943",
"+ c #C38D5B",
"@ c #EDAF6B",
"# c #E256AF",
"$ c #299BD1",
"% c #5DD1ED",
"& c #CAA283",
"* c #CEB089",
"= c #DDBE85",
"- c #F486B3",
"; c #F9D8A2",
": c white",
/* pixels */
"***********************&&&&***********************",
"**********************&&&&&&**********************",
"*********************&&&&&&&&*********************",
"********************&&&&&&&&&&********************",
"*******************&&&&&&&&&&&&*******************",
"******************&&&&&&&&&&&&&&******************",
"*****************&&&&&&&&&&&&&&&&*****************",
"****************&&&&&&&&&&&&&&&&&&****************",
"***************&&&&&&&&&&&&&&&&&&&&***************",
"**************&&&&&&&&&&&&&&&&&&&&&&**************",
"*************&&&&&&&&&&&&&&&&&&&&&&&&*************",
"************&&&&&&& &&& &&& &&& &&&&&&************",
"***********&&&&&&& % & - & % & - &&&&&&***********",
"**********&&&&&&& $%% #-- $%% #-- &&&&&&**********",
"*********&&&&&&   $%% #-- $%% #--   &&&&&*********",
"********&&&&&& -- $%% #-- $%% #-- %% &&&&&********",
"*******&&&&&&& --# $   #   $   # $%% &&&&&&*******",
"******&&&&&&&&& ##               $$ &&&&&&&&******",
"*****&&&&&&&&&&&  X.==+ X.OO+ +==  &&&&&&&&&&*****",
"****&&&&&&&&&&& o X.+++ X.OO+ +++ &&&&&&&&&&&&****",
"***&&&&&&&&&&& @o O...+ X.OOO +.. &&&&&&&&&&&&&***",
"**&&&&&&&&&&&& @o O.::. X.OO+ .:: &&&&&&&&&&&&&&**",
"*&&&&&&&&&&&& @@o O.::. X.OOO .:: &&&&&&&&&&&&&&&*",
"&&&&&&&&&&&&& @@o O...  X.OOO  .. &&&&&&&&&&&&&&&&",
"&&&&&&&&&&&&& @@o O.+ : X.OOO : + &&&&&&&&&&&&&&&&",
"&&&&&&&&&&&&& @@o O.+ . ..XXX X + &&&&&&&&&&&&&&&&",
"&&&&&&&&&&&&& o@o O.+ ..     .X + &&&&&&&&&&&&&&&&",
"&&&&&&&&&&&&&& @o X.+ :::.::::: + &&&&&&&&&&&&&&&&",
"&&&&&&&&&&&&&& oo X.O+         +O &&&&&&&&&&&&&&&&",
"&&&&&&&&&&&&&&& oo X.OOOOOOOOOOO &&&&&&&&&&&&&&&&&",
"&&&&&&&&&&&&&&&&  o             &&&&&&&&&&&&&&&&&&",
"&&&&&&&&&&&&&&& @@@ooooooooooo  &&&&&&&&&&&&&&&&&&",
"&&&&&&&&&&&&&& @@@@@@@@@@@@@@@ o &&&&&&&&&&&&&&&&&",
"&&&&&&&&&&&&& o@@o @@@@@@;@;;@ oo &&&&&&&&&&&&&&&&",
"&&&&&&&&&&&&& ooo @@@@@@@@@;;@ oo &&&&&&&&&&&&&&&&",
"&&&&&&&&&&&&&&   o@@@@@@@@@@@@   &&&&&&&&&&&&&&&&&",
"&&&&&&&&&&&&&&&& o@@@@@@@@@@@@ ***&&&&&&&&&&&&&&&&",
"&&&&&&&&&&&&&&&* o@@        @@ ****&&&&&&&&&&&&&&&",
"&&&&&&&&&&&&&&** o@o ***** o@o *****&&&&&&&&&&&&&&",
"&&&&&&&&&&&&&*** oo ****** oo *******&&&&&&&&&&&&&",
"&&&&&&&&&&&&*****  ********  *********&&&&&&&&&&&&",
"&&&&&&&&&&&****************************&&&&&&&&&&&",
"&&&&&&&&&&******************************&&&&&&&&&&",
"&&&&&&&&&********************************&&&&&&&&&",
"&&&&&&&&**********************************&&&&&&&&",
"&&&&&&&************************************&&&&&&&",
"&&&&&&**************************************&&&&&&",
"&&&&&****************************************&&&&&",
"&&&&******************************************&&&&",
"&&&********************************************&&&"
};
