/* XPM */
static char *dd8c09438ae04cecdffcd04abcbff347wV0mAw6ufvvusqmB[] = {
/* columns rows colors chars-per-pixel */
"50 50 2 1 ",
"  c #9AABC3",
". c #AFBFCB",
/* pixels */
"                    .....     ....................",
"                    .....     ....................",
"                    .....     ....................",
"                    .....     ....................",
"                    .....     ....................",
"                    .....     ....................",
"                    .....     ....................",
"                    .....     ....................",
"                    .....     ....................",
"                    .....     ....................",
"                    .....     ....................",
"                    .....     ....................",
"                    .....     ....................",
"                    .....     ....................",
"                    .....     ....................",
"                    .....     ....................",
"                    .....     ....................",
"                    .....     ....................",
"                    .....     ....................",
".........................                         ",
".........................                         ",
".........................                         ",
".........................                         ",
".........................                         ",
"                         .........................",
"                         .........................",
"                         .........................",
"                         .........................",
"                         .........................",
"....................     .....                    ",
"....................     .....                    ",
"....................     .....                    ",
"....................     .....                    ",
"....................     .....                    ",
"....................     .....                    ",
"....................     .....                    ",
"....................     .....                    ",
"....................     .....                    ",
"....................     .....                    ",
"....................     .....                    ",
"....................     .....                    ",
"....................     .....                    ",
"....................     .....                    ",
"....................     .....                    ",
"....................     .....                    ",
"....................     .....                    ",
"....................     .....                    ",
"....................     .....                    ",
"....................     .....                    ",
"....................     .....                    "
};
